<?xml version="1.0" encoding="UTF-8"?>
<svg width="1" height="1" viewBox="0 0 100 100" xmlns="http://www.w3.org/2000/svg">
  <path d="M 90 60 Q 88.494 59.105999999999995 86.988 58.211999999999996 Q 85.533 57.369 84.078 56.526 Q 82.671 55.734 81.26400000000001 54.942 Q 79.908 54.198 78.55199999999999 53.454 Q 77.247 52.760999999999996 75.94200000000001 52.068 Q 74.688 51.423 73.434 50.778000000000006 Q 72.228 50.184000000000005 71.02199999999999 49.59 Q 69.864 49.047 68.706 48.504 Q 67.602 48.012 66.498 47.52 Q 65.44200000000001 47.076 64.386 46.632 Q 63.381 46.239000000000004 62.376000000000005 45.846000000000004 Q 61.419000000000004 45.501000000000005 60.462 45.156 Q 59.556000000000004 44.861999999999995 58.650000000000006 44.568 Q 57.795 44.325 56.94 44.082 Q 56.132999999999996 43.887 55.326 43.692 Q 54.57 43.548 53.814 43.404 Q 53.108999999999995 43.311 52.403999999999996 43.217999999999996 Q 51.747 43.176 51.09 43.134 Q 50.484 43.14 49.878 43.146 Q 49.323 43.2 48.768 43.254 Q 48.261 43.361999999999995 47.754000000000005 43.47 Q 47.298 43.626000000000005 46.842 43.782000000000004 Q 46.437 43.989000000000004 46.032 44.196 Q 45.675 44.45099999999999 45.318 44.705999999999996 Q 45.012 45.012 44.705999999999996 45.318 Q 44.45099999999999 45.675 44.196 46.032 Q 43.989000000000004 46.437 43.782000000000004 46.842 Q 43.626000000000005 47.298 43.47 47.754000000000005 Q 43.361999999999995 48.261 43.254 48.768 Q 43.2 49.323 43.146 49.878 Q 43.14 50.484 43.134 51.09 Q 43.176 51.747 43.217999999999996 52.403999999999996 Q 43.311 53.108999999999995 43.404 53.814 Q 43.548 54.57 43.692 55.326 Q 43.887 56.132999999999996 44.082 56.94 Q 44.325 57.795 44.568 58.650000000000006 Q 44.861999999999995 59.556000000000004 45.156 60.462 Q 45.501000000000005 61.419000000000004 45.846000000000004 62.376000000000005 Q 46.239000000000004 63.381 46.632 64.386 Q 47.076 65.44200000000001 47.52 66.498 Q 48.012 67.602 48.504 68.706 Q 49.047 69.864 49.59 71.02199999999999 Q 50.184000000000005 72.228 50.778000000000006 73.434 Q 51.423 74.688 52.068 75.94200000000001 Q 52.760999999999996 77.247 53.454 78.55199999999999 Q 54.198 79.908 54.942 81.26400000000001 Q 55.734 82.671 56.526 84.078 Q 57.369 85.533 58.211999999999996 86.988 Q 59.105999999999995 88.494 60 90 Q 75 75 90 60" stroke="#080505ff" stroke-width="1.5" fill="none" stroke-linecap="round" stroke-linejoin="round" class="jsx-9923c24f0ed86b37 kolam-path" style="stroke-dasharray: none; stroke-dashoffset: 0; opacity: 1;"></path>
  <circle cx="65" cy="65" r="4" fill="black"/>
</svg>