<svg width="300" height="100" xmlns="http://www.w3.org/2000/svg">
  <path d="M 270 60 Q 269.388 59.4 268.77599999999995 58.8 Q 268.164 58.224 267.552 57.647999999999996 Q 266.94 57.099 266.328 56.55 Q 265.716 56.025 265.104 55.5 Q 264.49199999999996 55.001999999999995 263.88 54.504 Q 263.26800000000003 54.027 262.656 53.55 Q 262.041 53.103 261.426 52.656000000000006 Q 260.81399999999996 52.230000000000004 260.202 51.803999999999995 Q 259.59000000000003 51.405 258.978 51.006 Q 258.366 50.631 257.75399999999996 50.256 Q 257.142 49.905 256.53000000000003 49.553999999999995 Q 255.918 49.23 255.30599999999998 48.906 Q 254.694 48.606 254.082 48.306000000000004 Q 253.46999999999997 48.03 252.85799999999998 47.754000000000005 Q 252.24599999999998 47.505 251.63400000000001 47.256 Q 251.022 47.031 250.41 46.806 Q 249.798 46.605 249.186 46.403999999999996 Q 248.574 46.230000000000004 247.962 46.056000000000004 Q 247.34699999999998 45.906000000000006 246.73199999999997 45.756 Q 246.12 45.629999999999995 245.508 45.504 Q 244.89600000000002 45.405 244.284 45.306 Q 243.672 45.230999999999995 243.06 45.156 Q 242.44799999999998 45.105000000000004 241.83599999999998 45.054 Q 241.224 45.03 240.61200000000002 45.006 Q 240 45.006 239.38799999999998 45.006 Q 238.77599999999998 45.03 238.164 45.054 Q 237.552 45.105000000000004 236.94 45.156 Q 236.32799999999997 45.230999999999995 235.71599999999998 45.306 Q 235.10399999999998 45.405 234.492 45.504 Q 233.88 45.629999999999995 233.268 45.756 Q 232.65300000000002 45.906000000000006 232.038 46.056000000000004 Q 231.426 46.230000000000004 230.814 46.403999999999996 Q 230.202 46.605 229.59 46.806 Q 228.978 47.031 228.36599999999999 47.256 Q 227.754 47.505 227.142 47.754000000000005 Q 226.53 48.03 225.918 48.306000000000004 Q 225.30599999999998 48.606 224.694 48.906 Q 224.082 49.23 223.47 49.553999999999995 Q 222.858 49.905 222.246 50.256 Q 221.63400000000001 50.631 221.022 51.006 Q 220.41 51.405 219.798 51.803999999999995 Q 219.186 52.230000000000004 218.574 52.656000000000006 Q 217.959 53.103 217.344 53.55 Q 216.732 54.027 216.12 54.504 Q 215.50799999999998 55.001999999999995 214.896 55.5 Q 214.284 56.025 213.672 56.55 Q 213.06 57.099 212.448 57.647999999999996 Q 211.836 58.224 211.224 58.8 Q 210.612 59.4 210 60 Q 225 75 240 90 Q 255 75 270 60" stroke="#0c0c0cff" stroke-width="1.5" fill="none" stroke-linecap="round" stroke-linejoin="round" class="jsx-9923c24f0ed86b37 kolam-path" style="stroke-dasharray: none; stroke-dashoffset: 0; opacity: 1;"></path>
  <circle cx="240" cy="67.5" r="3" fill="black" />
</svg>